# xmcd
#
# Track frame offsets:
#	150
#	7404
#	23261
#	39348
#	56201
#	66929
#	80936
#	89289
#	99577
#	106792
#	115927
#	122633
#	132159
#	140880
#	156548
#	169802
#	175652
#	183940
#	192915
#	202696
#	212088
#	220160
#	232279
#	244705
#	256712
#	269632
#	278834
#	288414
#	298159
#	307866
#
# Disc length: 4264 seconds
#
# Revision: 2
# Processed by: cddbd v1.4PL0 Copyright (c) Steve Scherf et al.
# Submitted via: audiograbber 1.80
#
DISCID=c310a61e
DTITLE=Div Artists - Extraplatte
DYEAR=1900
DGENRE=
TTITLE0=S Loatal - Klaus Trabitsch
TTITLE1=Elias - Andreas Safer
TTITLE2=Zuchthauslied - Anlada A Noar
TTITLE3=Broadloan - Gastarbeiterroute
TTITLE4=Mystici - Adebar 
TTITLE5=Fir Bir - Deis Hovida 
TTITLE6=Wauzl Polka - Dohr and Sumper
TTITLE7=Zwiezupf - Darias Gagfra
TTITLE8=Stadtpeiferls Lieblingsreigen
TTITLE9=Einmal Verwandle Ich Mich In Ein Tier - Christ Zurbrügg&orchester R Fuc
TTITLE9=hs
TTITLE10=Kokahe - Peter Rosmanith and K. Trabitsch
TTITLE11=I Hear A Voice A Prayin - Gospel Familiy
TTITLE12=Du Past So Gut Zu Mir - Close Harmony 
TTITLE13=Jutro - Bruji
TTITLE14=How Come - Liszl 
TTITLE15=Intro - Hary Wetterstein
TTITLE16=Des Brauch I Ned - Erika Pluhar and Klaus Trabitsch
TTITLE17=Der Kamenitser Khossed - Andy Statmen Klezmer Orch
TTITLE18=Esta Parea - Lena Rothstein Ensemble 
TTITLE19=Margeritkes -  Aron Saltiel
TTITLE20=Lebedik Un Frejlech  -Goijm
TTITLE21=Mati Mati - Wiener Tschuschenkapelle
TTITLE22=Intermezzo Levantino - Lakis and Achwach
TTITLE23=Paximadokleftra - Marios and Julie 
TTITLE24=Tarik - Ziryab
TTITLE25=Kumbu Sora Nanigo - Kakilambe
TTITLE26=Faso Dan Fani - Sanza 
TTITLE27=Nuits Bleuss Au Cygne Vert - Drum-Pact
TTITLE28=Filhas Da Africa - Mato Grosso 
TTITLE29=Dancing A Rainbows - Big Tribal Heart
EXTD=
EXTT0=
EXTT1=
EXTT2=
EXTT3=
EXTT4=
EXTT5=
EXTT6=
EXTT7=
EXTT8=
EXTT9=
EXTT10=
EXTT11=
EXTT12=
EXTT13=
EXTT14=
EXTT15=
EXTT16=
EXTT17=
EXTT18=
EXTT19=
EXTT20=
EXTT21=
EXTT22=
EXTT23=
EXTT24=
EXTT25=
EXTT26=
EXTT27=
EXTT28=
EXTT29=
PLAYORDER=
